<?xml version="1.0" encoding="utf-8"?>
<!-- Generator: Adobe Illustrator 21.1.0, SVG Export Plug-In . SVG Version: 6.00 Build 0)  -->
<svg version="1.1" id="Camada_1" xmlns="http://www.w3.org/2000/svg" xmlns:xlink="http://www.w3.org/1999/xlink" x="0px" y="0px"
	 viewBox="0 0 480 480" style="enable-background:new 0 0 480 480;" xml:space="preserve">
<style type="text/css">
	.st0{fill:#D4E1F4;}
	.st1{fill:#353CFF;}
</style>
<path class="st0" d="M60,432V108c0-22.1,17.9-40,40-40h368.7c-4.5-17.7-20.5-30-38.7-30H50c-22.1,0-40,17.9-40,40v324
	c0,22.1,17.9,40,40,40h11.3C60.4,438.7,60,435.4,60,432z"/>
<g>
	<path class="st1" d="M430,28H50C22.4,28,0,50.4,0,78v324c0,27.6,22.4,50,50,50h380c27.6,0,50-22.4,50-50V78
		C480,50.4,457.6,28,430,28z M50,48h380c16.5,0,30,13.5,30,30v41.7H20V78C20,61.5,33.5,48,50,48z M430,432H50c-16.5,0-30-13.5-30-30
		V139.7h440V402C460,418.5,446.5,432,430,432z"/>
	<path class="st1" d="M405.4,309.1H278.9c-5.5,0-10,4.5-10,10c0,5.5,4.5,10,10,10h126.5c5.5,0,10-4.5,10-10
		C415.4,313.6,410.9,309.1,405.4,309.1z"/>
	<path class="st1" d="M405.4,367.3H278.9c-5.5,0-10,4.5-10,10s4.5,10,10,10h126.5c5.5,0,10-4.5,10-10S410.9,367.3,405.4,367.3z"/>
	<path class="st1" d="M405.4,192.7H278.9c-5.5,0-10,4.5-10,10s4.5,10,10,10h126.5c5.5,0,10-4.5,10-10S410.9,192.7,405.4,192.7z"/>
	<path class="st1" d="M405.4,250.9H278.9c-5.5,0-10,4.5-10,10c0,5.5,4.5,10,10,10h126.5c5.5,0,10-4.5,10-10
		C415.4,255.4,410.9,250.9,405.4,250.9z"/>
</g>
<path class="st1" d="M143.4,286c28.5,0,51.7-23.1,51.7-51.6c0-28.5-23.1-51.7-51.6-51.7s-51.7,23.1-51.7,51.6
	C91.8,262.8,114.9,285.9,143.4,286z M143.4,202.7c12.8,0,24.4,7.7,29.3,19.5c4.9,11.8,2.2,25.5-6.9,34.5
	c-9.1,9.1-22.7,11.8-34.5,6.9c-11.8-4.9-19.5-16.5-19.5-29.3C111.8,216.9,126,202.8,143.4,202.7z"/>
<path class="st1" d="M143.4,305.1c-21.1-0.1-41.4,8.3-56.2,23.5c-15,15.3-23.2,36.1-23.2,58.7c0,5.5,4.5,10,10,10h138.9
	c5.5,0,10-4.5,10-10c0-22.6-8.2-43.4-23.2-58.7C184.9,313.4,164.6,305,143.4,305.1z M84.7,377.3c1.7-13.1,7.6-25.2,16.8-34.7
	c11.1-11.2,26.2-17.5,41.9-17.5c15.7,0,30.8,6.3,41.9,17.5c9.2,9.5,15.1,21.6,16.8,34.7H84.7z"/>
</svg>
