<?xml version="1.0" encoding="utf-8"?>
<!-- Generator: Adobe Illustrator 21.1.0, SVG Export Plug-In . SVG Version: 6.00 Build 0)  -->
<svg version="1.1" id="Capa_1" xmlns="http://www.w3.org/2000/svg" xmlns:xlink="http://www.w3.org/1999/xlink" x="0px" y="0px"
	 viewBox="0 0 512 512" style="enable-background:new 0 0 512 512;" xml:space="preserve">
<style type="text/css">
	.st0{fill:#FFFFFF;}
</style>
<g>
	<path class="st0" d="M290.7,409.1c-21.8,0-43.6,0-65.3,0c-5.1-0.3-10.1-0.6-15.2-0.8c-11.2-0.5-22.6,0.2-33.5-1.7
		c-41.9-7.2-72.2-43.5-72.8-86c-0.2-11.3-0.7-22.7-1-34c0-21.8,0-43.6,0-65.3c0.3-9,0.9-17.9,0.9-26.9c0-12.2,2-24,6.6-35.3
		c13.9-33.9,46.2-55.2,83-55.4c9.7,0,19.3-0.6,29-0.9c21.4,0,42.9,0,64.3,0c2.2,0.2,4.3,0.6,6.5,0.7c12.5,0.4,25.2,0,37.6,1.3
		c36.5,3.7,68.4,32.8,75.1,68.9c2.2,11.9,1.7,24.3,2.4,36.5c0.3,5.1,0.5,10.1,0.8,15.2c0,21.1,0,42.2,0,63.3
		c-0.3,9.3-1,18.6-0.9,27.9c0.2,52.7-39,91.9-91.6,91.6C308,408.2,299.3,408.8,290.7,409.1z M132.5,255.5
		C132.5,255.5,132.5,255.5,132.5,255.5c0,21.4-0.4,42.9,0,64.3c0.7,34,25.7,59.2,59.7,59.6c43.4,0.5,86.7,0.5,130.1,0
		c18.9-0.2,34.1-9.3,45.5-24.5c7.1-9.5,11.5-20.3,11.5-32.1c0.2-44.4,0.5-88.8-0.1-133.1c-0.4-30-25.8-56.3-55.5-56.8
		c-45.2-0.8-90.5-0.8-135.7-0.1c-28.7,0.4-54.6,26.9-55.4,55.5C132,210.6,132.5,233.1,132.5,255.5z"/>
	<path class="st0" d="M255.6,177.3c45.5,0.6,79.6,35.6,79,81.1c-0.5,41-37,76.7-77.8,76.2c-45.9-0.6-80.1-35.4-79.5-81.1
		C177.8,212.3,214.3,176.8,255.6,177.3z M206,255.6c-0.6,26.3,21.4,49.8,47.4,50.4c29.2,0.8,51.9-20.6,52.6-49.4
		c0.7-26.6-21.4-50.1-47.7-50.7C229.2,205.3,206.7,226.6,206,255.6z"/>
	<path class="st0" d="M335.2,193.7c-9.9,0.1-17.9-7.9-17.9-17.7c0-9.5,8-17.6,17.4-17.8c9.7-0.2,18,7.8,18.2,17.6
		C353.1,185.4,345,193.6,335.2,193.7z"/>
</g>
</svg>
