<?xml version="1.0" encoding="utf-8"?>
<!-- Generator: Adobe Illustrator 21.1.0, SVG Export Plug-In . SVG Version: 6.00 Build 0)  -->
<svg version="1.1" id="Capa_1" xmlns="http://www.w3.org/2000/svg" xmlns:xlink="http://www.w3.org/1999/xlink" x="0px" y="0px"
	 viewBox="0 0 512 512" style="enable-background:new 0 0 512 512;" xml:space="preserve">
<style type="text/css">
	.st0{fill:#353CFF;}
</style>
<g>
	<g>
		<g>
			<path class="st0" d="M100.8,411.1h58.2V178.2h-58.2V411.1z M333.7,178.2c-49.8,0.8-74.4,37.2-77.6,38.8v-38.8h-58.2v232.9h58.2
				V275.3c0-5,12.3-44.9,58.2-38.8c24.7,1.6,38,34.2,38.8,38.8v135.9l58,0.3V250.2C409.1,226.9,397.5,179.1,333.7,178.2z M130,100.6
				c-16.1,0-29.1,13-29.1,29.1s13,29.1,29.1,29.1s29.1-13,29.1-29.1S146,100.6,130,100.6z"/>
		</g>
	</g>
</g>
</svg>
