
<svg width="31" height="22" fill="none" xmlns="http://www.w3.org/2000/svg"><path fill-rule="evenodd" clip-rule="evenodd" d="M22.143 9.941h3.562c2.791.553 5.005 2.486 5.005 5.8 0 3.774-2.984 6.259-6.834 6.259-4.621 0-7.316-3.59-7.316-8.56C16.56 6.074 21.662.643 31 0v2.485c-5.295.829-8.472 3.406-8.857 7.456zm-16.656 0h3.658c2.792.553 5.006 2.486 5.006 5.8 0 3.774-3.08 6.259-6.835 6.259C2.696 22 0 18.41 0 13.44 0 6.074 5.102.643 14.44 0v2.485c-5.391.829-8.472 3.406-8.953 7.456z" fill="#0439DE"/></svg>