<?xml version="1.0" encoding="UTF-8" standalone="no"?>
<!-- Generator: Adobe Illustrator 19.0.0, SVG Export Plug-In . SVG Version: 6.00 Build 0)  -->

<svg
   xmlns:dc="http://purl.org/dc/elements/1.1/"
   xmlns:cc="http://creativecommons.org/ns#"
   xmlns:rdf="http://www.w3.org/1999/02/22-rdf-syntax-ns#"
   xmlns:svg="http://www.w3.org/2000/svg"
   xmlns="http://www.w3.org/2000/svg"
   xmlns:sodipodi="http://sodipodi.sourceforge.net/DTD/sodipodi-0.dtd"
   xmlns:inkscape="http://www.inkscape.org/namespaces/inkscape"
   version="1.1"
   id="Capa_1"
   x="0px"
   y="0px"
   viewBox="0 0 52 52"
   style="enable-background:new 0 0 52 52;"
   xml:space="preserve"
   sodipodi:docname="success.svg"
   inkscape:version="0.92.3 (2405546, 2018-03-11)"><metadata
   id="metadata3880"><rdf:RDF><cc:Work
       rdf:about=""><dc:format>image/svg+xml</dc:format><dc:type
         rdf:resource="http://purl.org/dc/dcmitype/StillImage" /></cc:Work></rdf:RDF></metadata><defs
   id="defs3878" /><sodipodi:namedview
   pagecolor="#ffffff"
   bordercolor="#666666"
   borderopacity="1"
   objecttolerance="10"
   gridtolerance="10"
   guidetolerance="10"
   inkscape:pageopacity="0"
   inkscape:pageshadow="2"
   inkscape:window-width="1853"
   inkscape:window-height="1025"
   id="namedview3876"
   showgrid="false"
   inkscape:zoom="11.313709"
   inkscape:cx="34.701717"
   inkscape:cy="33.332803"
   inkscape:window-x="67"
   inkscape:window-y="27"
   inkscape:window-maximized="1"
   inkscape:current-layer="Capa_1" />
<g
   id="g3843"
   style="fill:#59294e;fill-opacity:1">
	<path
   d="M26,0C11.664,0,0,11.663,0,26s11.664,26,26,26s26-11.663,26-26S40.336,0,26,0z M26,50C12.767,50,2,39.233,2,26   S12.767,2,26,2s24,10.767,24,24S39.233,50,26,50z"
   id="path3839"
   style="fill:#59294e;fill-opacity:1" />
	<path
   d="M38.252,15.336l-15.369,17.29l-9.259-7.407c-0.43-0.345-1.061-0.274-1.405,0.156c-0.345,0.432-0.275,1.061,0.156,1.406   l10,8C22.559,34.928,22.78,35,23,35c0.276,0,0.551-0.114,0.748-0.336l16-18c0.367-0.412,0.33-1.045-0.083-1.411   C39.251,14.885,38.62,14.922,38.252,15.336z"
   id="path3841"
   style="fill:#59294e;fill-opacity:1" />
</g>
<g
   id="g3845">
</g>
<g
   id="g3847">
</g>
<g
   id="g3849">
</g>
<g
   id="g3851">
</g>
<g
   id="g3853">
</g>
<g
   id="g3855">
</g>
<g
   id="g3857">
</g>
<g
   id="g3859">
</g>
<g
   id="g3861">
</g>
<g
   id="g3863">
</g>
<g
   id="g3865">
</g>
<g
   id="g3867">
</g>
<g
   id="g3869">
</g>
<g
   id="g3871">
</g>
<g
   id="g3873">
</g>
<style
   id="style5458"
   type="text/css">
	.st0{fill:#D4E1F4;}
	.st1{fill:#353CFF;}
</style><path
   style="fill:#0000ff;fill-opacity:1;stroke-width:0.06161137"
   d="M 24.835545,51.951222 C 20.361516,51.680477 16.460451,50.517159 12.837726,48.37341 6.3114224,44.511466 1.7708007,38.003374 0.44337404,30.608531 0.13293269,28.87912 0.06958105,28.084596 0.07247262,25.956872 0.07595911,23.391392 0.24472451,21.964376 0.81302413,19.695052 3.3089825,9.7282382 11.541597,2.1073029 21.662559,0.39462546 23.242827,0.12721132 23.914756,0.07994909 26.098578,0.08260408 28.321345,0.08530642 29.24262,0.16670417 31.027488,0.51808982 41.023816,2.486059 49.047569,10.278953 51.32307,20.22973 c 0.191726,0.838417 0.441942,2.355647 0.497428,3.016242 0.02277,0.27109 0.05493,0.54141 0.07147,0.60071 0.02774,0.09946 -0.04668,0.10782 -0.959859,0.10782 -0.544464,0 -0.989934,-0.02162 -0.989934,-0.04805 0,-0.172766 -0.204454,-1.642942 -0.310339,-2.231572 C 48.526859,15.532149 44.917594,9.9251229 39.731323,6.2943357 33.154798,1.6902652 24.64578,0.69868506 17.166101,3.6647463 13.971457,4.9315803 11.1715,6.8073613 8.7520873,9.3015653 1.6032945,16.671349 -0.06499379,27.724199 4.5902715,36.874695 9.4856533,46.497169 20.199972,51.684577 30.7649,49.547313 35.204286,48.649234 39.359435,46.473617 42.562853,43.36996 l 0.791665,-0.767012 0.629139,0.309736 c 0.346026,0.170354 0.760332,0.358598 0.920678,0.418318 l 0.291539,0.108584 -0.177136,0.223098 c -0.211316,0.266146 -1.268711,1.293348 -1.91542,1.860729 -4.034146,3.539296 -9.080832,5.745867 -14.424035,6.306646 -0.882462,0.09262 -3.139682,0.163768 -3.843738,0.121163 z"
   id="path5497"
   inkscape:connector-curvature="0" /><path
   style="fill:#0000ff;fill-opacity:1;stroke-width:0.06161137"
   d="m 22.684546,34.907994 c -0.286617,-0.104172 -10.400963,-8.219967 -10.525541,-8.44574 -0.14421,-0.261352 -0.138328,-0.701038 0.01269,-0.948717 0.222851,-0.365486 0.667068,-0.553171 1.059288,-0.447557 0.164493,0.04429 1.593957,1.150924 4.932308,3.818385 2.585379,2.065809 4.717414,3.749383 4.737856,3.741276 0.02044,-0.0081 3.499944,-3.908577 7.732227,-8.66771 4.232283,-4.759133 7.773337,-8.709962 7.869009,-8.779621 0.242201,-0.176345 0.76811,-0.175178 1.007552,0.0022 0.409953,0.303754 0.557982,0.786239 0.371408,1.210557 -0.04083,0.09286 -3.706227,4.257514 -8.145326,9.254793 -6.158442,6.932816 -8.130451,9.115714 -8.321585,9.211503 -0.2744,0.137519 -0.456075,0.150112 -0.729888,0.05059 z"
   id="path5499"
   inkscape:connector-curvature="0" /><path
   style="fill:#0000ff;fill-opacity:1;stroke-width:0.08713164"
   d="m 44.225345,42.980662 -0.847381,-0.40231 0.479092,-0.517476 c 2.530966,-2.733745 4.613356,-6.692 5.51327,-10.479751 0.462259,-1.945653 0.556175,-2.771788 0.601742,-5.293248 l 0.04212,-2.330771 h 0.949186 0.949185 l 0.01987,0.849534 c 0.140797,6.01861 -1.282717,11.049117 -4.444279,15.705478 -0.846746,1.247091 -2.157549,2.87642 -2.311422,2.873099 -0.0572,-0.0012 -0.485327,-0.183284 -0.951387,-0.404555 z"
   id="path5501"
   inkscape:connector-curvature="0" /><path
   style="fill:#0000ff;fill-opacity:1;stroke-width:0.00390625"
   d="m 40.383893,45.202755 c 8.95e-4,-7.51e-4 0.04997,-0.03802 0.109049,-0.08283 0.723826,-0.5489 1.416717,-1.140833 2.107358,-1.800307 0.121338,-0.115862 0.603216,-0.59774 0.719078,-0.719077 0.832809,-0.87217 1.568152,-1.760267 2.243788,-2.709897 l 0.06045,-0.08496 h 0.01474 c 0.0081,0 0.01474,9.55e-4 0.01474,0.0021 0,0.0012 -0.01877,0.02885 -0.04171,0.06152 -0.501283,0.713842 -0.992344,1.337926 -1.512763,1.922551 -0.113104,0.127057 -0.178321,0.198306 -0.462757,0.505556 -0.141987,0.153375 -0.257858,0.279792 -0.257492,0.280926 6.35e-4,0.002 0.653441,0.312832 0.90949,0.433102 0.419537,0.197064 0.779342,0.350641 0.872165,0.372272 0.01932,0.0045 0.02187,0.0042 0.04102,-0.0052 0.08285,-0.04066 0.314721,-0.285145 0.634047,-0.66854 0.474812,-0.57008 1.062153,-1.343268 1.511852,-1.990235 0.17955,-0.258314 0.382291,-0.562495 0.569528,-0.854492 l 0.0382,-0.05957 h 0.03295 c 0.03166,0 0.03278,3.02e-4 0.02879,0.0078 -0.0023,0.0043 -0.03248,0.05217 -0.0671,0.106446 -0.878602,1.377473 -1.852544,2.633786 -2.963832,3.823125 -0.434616,0.46514 -0.926073,0.952924 -1.390809,1.380412 l -0.08773,0.08069 h -0.02346 c -0.01987,0 -0.02259,-8.03e-4 -0.01774,-0.0052 0.543082,-0.498124 1.197395,-1.13795 1.468677,-1.43616 0.06173,-0.06785 0.263393,-0.32021 0.259081,-0.324203 -0.0018,-0.0017 -0.06833,-0.02717 -0.14782,-0.05665 -0.172191,-0.06386 -0.21084,-0.07915 -0.326171,-0.12906 -0.267039,-0.115555 -0.497481,-0.224431 -1.028606,-0.485981 l -0.335245,-0.165091 -0.01024,0.0092 c -0.0056,0.0051 -0.179131,0.172679 -0.38556,0.372484 -0.556886,0.539016 -0.61095,0.590713 -0.8009,0.765828 -0.501295,0.462145 -1.03043,0.907896 -1.572266,1.324501 -0.166381,0.127927 -0.16991,0.130374 -0.187992,0.130374 -0.009,0 -0.0157,-6.15e-4 -0.01481,-0.0014 z"
   id="path5503"
   inkscape:connector-curvature="0" /><path
   style="fill:#0000ff;fill-opacity:1;stroke-width:0.00390625"
   d="m 49.985429,25.12524 c -5.27e-4,-0.07471 -0.01724,-0.416775 -0.03167,-0.648078 -0.04869,-0.780639 -0.142403,-1.610238 -0.267612,-2.369053 -0.0096,-0.05796 -0.01739,-0.106738 -0.01739,-0.108398 0,-0.0017 0.0034,-0.003 0.0075,-0.003 0.0094,0 0.0056,-0.02023 0.04506,0.238282 0.09602,0.628604 0.203574,1.432705 0.214994,1.607422 0.0041,0.06228 0.0054,0.06837 0.01575,0.07231 0.03668,0.01395 0.259082,0.02892 0.540906,0.03641 0.02041,5.43e-4 -0.07836,0.0014 -0.219496,0.0018 -0.145622,4.6e-4 -0.257539,0.0023 -0.258764,0.0043 -0.0012,0.0019 -0.0067,0.270427 -0.01235,0.59668 -0.0056,0.326253 -0.01165,0.596703 -0.01343,0.601 -0.0021,0.005 -0.0033,-0.0059 -0.0035,-0.02966 z"
   id="path5505"
   inkscape:connector-curvature="0" /><path
   style="fill:#0000ff;fill-opacity:1;stroke-width:0.00390625"
   d="m 51.895321,27.385979 c 0,-0.005 0.0035,-0.07754 0.0078,-0.161133 0.01623,-0.318142 0.02826,-0.670414 0.03518,-1.030887 0.005,-0.258371 0.005,-0.895815 2.4e-5,-1.160156 -0.0063,-0.336783 -0.02366,-1.069972 -0.02543,-1.075196 -0.0013,-0.0038 -0.04385,-0.0051 -0.19221,-0.0057 -0.104805,-4.5e-4 -0.172975,-0.0013 -0.151491,-0.0018 0.183648,-0.0048 0.287389,-0.02024 0.315111,-0.0468 0.01503,-0.0144 0.01639,-0.02625 0.0076,-0.06607 -0.01693,-0.07627 -0.04067,-0.274517 -0.06687,-0.558297 -0.03189,-0.345383 -0.07471,-0.676264 -0.150481,-1.162647 -0.0096,-0.06153 -0.01743,-0.113821 -0.01743,-0.116211 0,-0.0025 0.0071,-0.0043 0.01694,-0.0043 h 0.01694 l 0.0087,0.05762 c 0.17706,1.174861 0.26913,2.256114 0.293791,3.450195 0.005,0.243132 0.0025,0.983199 -0.004,1.193359 -0.0081,0.259812 -0.01928,0.540023 -0.02615,0.655274 l -0.0025,0.04199 h -0.0327 c -0.03169,0 -0.0327,-2.83e-4 -0.0327,-0.0092 z"
   id="path5507"
   inkscape:connector-curvature="0" /></svg>