<?xml version="1.0" encoding="utf-8"?>
<!-- Generator: Adobe Illustrator 21.1.0, SVG Export Plug-In . SVG Version: 6.00 Build 0)  -->
<svg version="1.1" id="Camada_1" xmlns="http://www.w3.org/2000/svg" xmlns:xlink="http://www.w3.org/1999/xlink" x="0px" y="0px"
	 viewBox="0 0 420 420" style="enable-background:new 0 0 420 420;" xml:space="preserve">
<style type="text/css">
	.st0{fill:#D4E1F4;}
	.st1{fill:#353CFF;}
</style>
<path class="st0" d="M168,145h140c0-22.1-17.9-40-40-40H128c-22.1,0-40,17.9-40,40v130c0,22.1,17.9,40,40,40V185
	C128,162.9,145.9,145,168,145z"/>
<g>
	<path class="st1" d="M291.4,35.6c-1.9-20.3-19-35.7-39.3-35.6H143.9c-20.3-0.1-37.4,15.4-39.3,35.6c0,0,0,0.1,0,0.1L98.2,112
		l19.9,1.7l6.5-76.2c1-10,9.4-17.6,19.4-17.5h108.1c10,0,18.4,7.6,19.4,17.5l6.5,76.2l19.9-1.7l-6.5-76.3
		C291.4,35.7,291.4,35.7,291.4,35.6z"/>
	<path class="st1" d="M271.4,382.5c-1,10-9.4,17.6-19.4,17.5H143.9c-10,0-18.4-7.6-19.4-17.5l-6.5-76.2L98.2,308l6.5,76.3
		c0,0,0,0.1,0,0.1c1.9,20.3,19,35.7,39.3,35.6h108.1c20.3,0.1,37.4-15.4,39.3-35.6c0,0,0-0.1,0-0.1l6.5-76.3l-19.9-1.7L271.4,382.5z
		"/>
	<path class="st1" d="M198,151.5c-5.5,0-10,4.5-10,10V210c0,5.5,4.5,10,10,10h37.1c5.5,0,10-4.5,10-10s-4.5-10-10-10H208v-38.5
		C208,156,203.5,151.5,198,151.5z"/>
	<path class="st1" d="M332,219c-5.5,0-10,4.5-10,10v28c0,5.5,4.5,10,10,10s10-4.5,10-10v-28C342,223.5,337.5,219,332,219z"/>
	<path class="st1" d="M332,146c-5.5,0-10,4.5-10,10v28c0,5.5,4.5,10,10,10s10-4.5,10-10v-28C342,150.5,337.5,146,332,146z"/>
</g>
<path class="st1" d="M268,325H128c-27.6,0-50-22.4-50-50V145c0-27.6,22.4-50,50-50h140c27.6,0,50,22.4,50,50v130
	C318,302.6,295.6,325,268,325z M128,115c-16.6,0-30,13.4-30,30v130c0,16.6,13.4,30,30,30h140c16.6,0,30-13.4,30-30V145
	c0-16.6-13.4-30-30-30H128z"/>
</svg>
