<?xml version="1.0" encoding="utf-8"?>
<!-- Generator: Adobe Illustrator 21.1.0, SVG Export Plug-In . SVG Version: 6.00 Build 0)  -->
<svg version="1.1" id="Camada_1" xmlns="http://www.w3.org/2000/svg" xmlns:xlink="http://www.w3.org/1999/xlink" x="0px" y="0px"
	 viewBox="0 0 439 439" style="enable-background:new 0 0 439 439;" xml:space="preserve">
<style type="text/css">
	.st0{fill:#D4E1F4;}
	.st1{fill:#353CFF;}
</style>
<g>
	<path class="st0" d="M326.6,117.9v0.2h-68.2c-22.1,0-40-17.9-40-40V47.8h1.1V11.1L326.6,117.9z"/>
	<path class="st0" d="M378.1,190.3l13.7,15.6l-124.5,109l-8.1,38.3l-22.4,1.3l10.5-49.6L378.1,190.3z"/>
	<path class="st0" d="M259.2,353.1l-22.4,1.3L259.2,353.1z"/>
	<path class="st0" d="M219.6,11.1v36.7h-1.1V10.2h0.2L219.6,11.1z"/>
	<path class="st0" d="M218.5,10.2v37.6l-31-0.2H97.1c-22.1,0-40,17.9-40,40v341.3c-21.3-1-38-18.6-38-39.9V50.1
		c0-22.1,17.9-40,40-40h157.4L218.5,10.2z"/>
	<path class="st0" d="M57.1,7.6l162.5,0.2v3.3l-0.9-0.9h-0.2l-2-0.2H59.1c-22.1,0-40,17.9-40,40v338.9c0,21.3,16.7,38.9,38,39.9v1.3
		c-22.1,0-40-17.9-40-40V47.6C17.1,25.5,35,7.6,57.1,7.6z"/>
</g>
<path class="st1" d="M326.6,361c-5.5,0-10,4.5-10,10v17.9c0,16.5-13.4,29.9-30,30h-229c-16-0.8-28.5-14-28.5-30V50
	c0.1-16.5,13.4-29.9,30-30h149.4v58.2c0,27.6,22.4,50,50,50h58.2v53c0,5.5,4.5,10,10,10s10-4.5,10-10V118c0-2.7-1.1-5.2-2.9-7.1
	L226.7,4l-1-1c-1.9-1.9-4.5-3-7.2-3c-0.3,0-0.7,0-1,0.1H59.1c-27.6,0-50,22.4-50,50V389c0,26.6,20.9,48.6,47.5,49.9
	c0.8,0,1.6,0.1,2.5,0.1h227.5c27.6,0,50-22.4,50-50v-17.9c0-2.7-1-5.2-2.9-7.1C331.9,362.1,329.3,361,326.6,361z M228.5,78.2V34.1
	l74.2,74.1h-44.2C241.9,108.1,228.5,94.7,228.5,78.2z"/>
<path class="st1" d="M399.3,199.3l-13.6-15.6c-1.7-2-4.2-3.2-6.9-3.4c-2.7-0.2-5.3,0.7-7.2,2.5L240.7,297.3
	c-1.7,1.4-2.8,3.4-3.2,5.5L227,352.3c-0.6,3.1,0.2,6.2,2.2,8.6c1.9,2.2,4.7,3.5,7.6,3.5h0.6l51.3-2.9c2.2-0.1,4.3-1,6-2.5
	l130.9-114.6c2-1.7,3.2-4.2,3.4-6.9c0.2-2.7-0.7-5.3-2.5-7.2L399.3,199.3z M284.1,341.7l-34.9,2l7.1-33.6l120.8-105.8l27.7,31.6
	L284.1,341.7z"/>
<path class="st1" d="M84.2,173.1h84c5.5,0,10-4.5,10-10c0-5.5-4.5-10-10-10h-84c-5.5,0-10,4.5-10,10
	C74.2,168.6,78.7,173.1,84.2,173.1z"/>
<path class="st1" d="M262.1,218.9h-178c-5.5,0-10,4.5-10,10c0,5.5,4.5,10,10,10h178c5.5,0,10-4.5,10-10
	C272.1,223.3,267.7,218.9,262.1,218.9z"/>
<path class="st1" d="M205.8,284.6H84.2c-5.5,0-10,4.5-10,10s4.5,10,10,10h121.6c5.5,0,10-4.5,10-10S211.3,284.6,205.8,284.6z"/>
<path class="st1" d="M205.8,350.4H84.2c-5.5,0-10,4.5-10,10s4.5,10,10,10h121.6c5.5,0,10-4.5,10-10S211.3,350.4,205.8,350.4z"/>
</svg>
